<?xml version="1.0" encoding="utf-8"?>
<!-- Generator: Adobe Illustrator 23.0.5, SVG Export Plug-In . SVG Version: 6.00 Build 0)  -->
<svg version="1.1" id="Layer1" xmlns="http://www.w3.org/2000/svg" xmlns:xlink="http://www.w3.org/1999/xlink" x="0px" y="0px"
	 viewBox="0 0 311.8 255.1" style="enable-background:new 0 0 311.8 255.1;" xml:space="preserve">
<style type="text/css">
	.Arched_x0020_Green{fill:url(#SVGID_1_);stroke:#FFFFFF;stroke-width:0.25;stroke-miterlimit:1;}
	.st0{fill:#CBE8DD;}
	.st1{fill:#FFE4B8;}
	.st2{fill:#A1CAC1;}
	.st3{fill:#E8CFA0;}
	.st4{fill:#89B5A9;}
	.st5{fill:#EF4130;}
	.st6{fill:#FFFFFF;}
	.st7{fill:#54B04E;}
	.st8{fill:#00AEEF;}
</style>
<linearGradient id="SVGID_1_" gradientUnits="userSpaceOnUse" x1="-14.1733" y1="269.291" x2="-13.4662" y2="268.5839">
	<stop  offset="0" style="stop-color:#20AC4B"/>
	<stop  offset="0.9831" style="stop-color:#19361A"/>
</linearGradient>
<g>
	<path class="st0" d="M0,88.3v166.8l78-12.4V123.6c-7.2-7.5-15.2-14-24.1-19.4C37.9,94.4,19,88.9,0,88.3z"/>
	<path class="st0" d="M28,7.9c12.8,22.2,30,41.2,49.9,54.9V0L28,7.9z"/>
	<path class="st1" d="M28,7.9L0,12.4v76c19,0.6,37.9,6,53.8,15.9c8.9,5.3,17,11.9,24.1,19.4V62.8C58.1,49.1,40.8,30.2,28,7.9z"/>
	<path class="st2" d="M78,123.6v119.1l33.6,5.3c0.9-4,1.7-8,2.2-12.1C118.6,192.7,104.6,151.5,78,123.6z"/>
	<path class="st3" d="M78,62.8v60.8c26.7,27.9,40.6,69.1,35.9,112.4c-0.6,4.1-1.3,8.2-2.2,12.1l44.3,7V94.6
		c-23.7-4.7-46.8-13.3-68.1-25.5C84.5,67.1,81.2,65,78,62.8z"/>
	<path class="st2" d="M78,0v62.8c3.2,2.2,6.5,4.3,9.9,6.3c21.3,12.3,44.4,20.9,68.1,25.5V12.4L78,0z"/>
	<path class="st0" d="M222.8,195.3c-12.9,14.9-21.7,33.4-26.4,53.3l37.4-5.9v-59.1C230,187.3,226.3,191.2,222.8,195.3z"/>
	<path class="st1" d="M155.9,94.6v160.5l40.5-6.4c4.7-19.9,13.5-38.5,26.4-53.3c3.5-4.1,7.2-8,11-11.7V95.5
		C208,100.1,181.5,99.7,155.9,94.6z"/>
	<path class="st0" d="M155.9,12.4v82.2c25.6,5.1,52.1,5.5,78,0.9V0L155.9,12.4z"/>
	<path class="st2" d="M233.9,242.7l78,12.4V140c-28.9,7.7-56,22.4-78,43.6V242.7z"/>
	<path class="st3" d="M294.8,74.6c-19.5,10.4-40.1,17.3-61,21v88.1c22-21.2,49-35.8,78-43.6V64.3C306.4,68,300.7,71.5,294.8,74.6z"
		/>
	<path class="st2" d="M233.9,0v95.5c20.9-3.7,41.5-10.6,61-21c5.9-3.1,11.5-6.6,17-10.2V12.4L233.9,0z"/>
</g>
<g>
	<path class="st4" d="M155.9,212.9H147c-2.8,0-5-2.2-5-5c0-2.8,2.2-5,5-5h3.9v-6.1c0-2.8,2.2-5,5-5c2.8,0,5,2.2,5,5v11.1
		C160.9,210.6,158.7,212.9,155.9,212.9L155.9,212.9z M127,212.9h-20c-2.8,0-5-2.2-5-5c0-2.8,2.2-5,5-5h20c2.8,0,5,2.2,5,5
		C132,210.6,129.7,212.9,127,212.9L127,212.9z M87,212.9H67c-2.8,0-5-2.2-5-5c0-2.8,2.2-5,5-5h20c2.8,0,5,2.2,5,5
		C92,210.6,89.7,212.9,87,212.9L87,212.9z M47,212.9H27c-2.8,0-5-2.2-5-5c0-2.8,2.2-5,5-5h20c2.8,0,5,2.2,5,5
		C52,210.6,49.7,212.9,47,212.9L47,212.9z M155.9,181.8c-2.8,0-5-2.2-5-5v-20c0-2.8,2.2-5,5-5c2.8,0,5,2.2,5,5v20
		C160.9,179.6,158.7,181.8,155.9,181.8L155.9,181.8z M155.9,141.8c-2.8,0-5-2.2-5-5v-11.2c0-2.8,2.2-5,5-5h8.8c2.8,0,5,2.2,5,5
		c0,2.8-2.2,5-5,5h-3.8v6.2C160.9,139.6,158.7,141.8,155.9,141.8L155.9,141.8z M284.7,130.6h-20c-2.8,0-5-2.2-5-5c0-2.8,2.2-5,5-5
		h20c2.8,0,5,2.2,5,5C289.7,128.3,287.4,130.6,284.7,130.6L284.7,130.6z M244.7,130.6h-20c-2.8,0-5-2.2-5-5c0-2.8,2.2-5,5-5h20
		c2.8,0,5,2.2,5,5C249.7,128.3,247.4,130.6,244.7,130.6L244.7,130.6z M204.7,130.6h-20c-2.8,0-5-2.2-5-5c0-2.8,2.2-5,5-5h20
		c2.8,0,5,2.2,5,5C209.7,128.3,207.4,130.6,204.7,130.6L204.7,130.6z"/>
</g>
<g>
	<path class="st5" d="M64.9,134.9c0,13.6-24.7,51.7-24.7,51.7s-24.7-38-24.7-51.7c0-13.6,11-24.7,24.7-24.7
		C53.9,110.2,64.9,121.3,64.9,134.9z"/>
	<path class="st6" d="M55.6,135.3c0,8.5-6.9,15.4-15.4,15.4s-15.4-6.9-15.4-15.4c0-8.5,6.9-15.4,15.4-15.4S55.6,126.8,55.6,135.3z"
		/>
</g>
<g>
	<path class="st7" d="M180.5,52.5c0,13.6-24.7,51.7-24.7,51.7s-24.7-38-24.7-51.7c0-13.6,11-24.7,24.7-24.7
		C169.5,27.9,180.5,38.9,180.5,52.5z"/>
	<path class="st6" d="M171.2,52.9c0,8.5-6.9,15.4-15.4,15.4c-8.5,0-15.4-6.9-15.4-15.4c0-8.5,6.9-15.4,15.4-15.4
		C164.3,37.5,171.2,44.4,171.2,52.9z"/>
</g>
<g>
	<path class="st8" d="M297.4,52.5c0,13.6-24.7,51.7-24.7,51.7S248,66.2,248,52.5c0-13.6,11-24.7,24.7-24.7
		C286.3,27.9,297.4,38.9,297.4,52.5z"/>
	<path class="st6" d="M288.1,52.9c0,8.5-6.9,15.4-15.4,15.4c-8.5,0-15.4-6.9-15.4-15.4c0-8.5,6.9-15.4,15.4-15.4
		C281.2,37.5,288.1,44.4,288.1,52.9z"/>
</g>
</svg>
